<svg width="60" height="61" fill="none" xmlns="http://www.w3.org/2000/svg"><g opacity=".03" fill="#fff"><path d="M26.425 48.372c.906 2.634 2.022 4.483 2.095 4.604.4.655 1.173.971 1.91.794.405-.096 9.928-2.449 12.824-9.414.232-.557.438-1.12.62-1.687-5.254 3.155-11.398 4.892-17.45 5.703ZM10.51 32.237c.016-.002.789-.083 1.91-.092 1.322-7.865 4.277-15.697 9.919-21.338a45.575 45.575 0 0 1 3.982-3.538c-1.806-.515-4.091-.652-6.97-.076-5.65 1.13-8.304 7.223-9.577 12.824-1.202 5.29-1.216 10.263-1.216 10.472 0 1.04.904 1.86 1.951 1.748ZM20.114 48.896c-1.016.032-2.506.047-3.524-.01a5.27 5.27 0 0 1-4.976-4.978c-.038-.696-.057-2.03-.01-3.52-2.37.327-5.599.412-9.5-.369A1.76 1.76 0 0 0 0 41.743c0 3.711 1.216 6.969 3.335 8.937a124.385 124.385 0 0 1 6.486 6.486c1.969 2.12 5.226 3.335 8.937 3.335a1.76 1.76 0 0 0 1.724-2.103c-.78-3.902-.696-7.131-.368-9.502Z"/><path d="M53.498 25.683c-8.093-.565-18.091-10.549-18.68-18.658-.006-.094-.004-.038-.004-1.176-3.769 2.08-7.125 4.58-9.988 7.444-6.367 6.367-8.993 16.192-9.6 25.087-.151 2.23-.157 4.293-.1 5.336.05.895.764 1.61 1.659 1.659 2.242.125 6.465-.04 10.54-.689 6.226-.994 12.505-3.054 17.471-6.895.002-.038.923-.665 2.494-2.2 2.817-2.833 5.311-6.17 7.334-9.827l-1.126-.08Z"/><path d="M59.892 6.225c-.154-1.328-.58-2.81-1.46-3.83C56.495.15 52.031.333 49.1.776c-3.644.55-7.437 1.803-10.769 3.31V6.83c.514 6.36 9.101 14.903 15.415 15.345l2.594.185c2.101-4.596 4.16-11.134 3.551-16.136Zm-12.888 5.18a1.755 1.755 0 0 1-.722-2.377c.428-.854 1.602-1.242 2.526-.634.374.247.649.641.748 1.118.28 1.497-1.277 2.577-2.552 1.893Z"/></g></svg>