<svg width="768" height="836" viewBox="0 0 768 836" fill="none" xmlns="http://www.w3.org/2000/svg">
<path d="M442.022 379.311C392.824 353.875 334.82 355.216 286.861 382.905C238.902 410.594 208.739 460.157 206.172 515.478L199.977 648.789C198.948 670.905 204.942 692.313 217.299 710.686C229.658 729.062 247.226 742.677 268.108 750.071C288.991 757.447 311.217 757.898 332.385 751.376C353.553 744.854 371.668 731.961 384.775 714.101L385.649 712.9C418.851 668.347 469.453 639.366 524.724 633.301C538.981 631.735 552.487 627.308 564.643 620.289C571.253 616.473 577.468 611.884 583.189 606.58C599.424 591.513 610.147 572.039 614.202 550.259C618.251 528.489 615.247 506.46 605.513 486.562C595.78 466.663 580.239 450.772 560.567 440.597L442.022 379.311Z" fill="#FFBD54"/>
<path d="M160.527 541.662C174.968 523.822 180.431 500.731 175.909 476.642C171.609 453.717 158.64 432.521 139.384 416.956C120.131 401.406 96.6878 393.173 73.3684 393.769C48.875 394.399 27.4406 404.574 13.0386 422.41C-15.9568 458.255 -6.46987 514.184 34.2043 547.103C66.625 573.278 109.173 577.052 139.784 559.378C147.6 554.866 154.638 548.954 160.527 541.662Z" fill="#FFBD54"/>
<path d="M237.536 395.56C284.126 368.661 297.098 303.593 266.452 250.512C235.799 197.419 172.957 176.11 126.367 203.009C79.7816 229.905 66.8188 294.979 97.4724 348.073C128.118 401.153 190.951 422.456 237.536 395.56Z" fill="#FFBD54"/>
<path d="M397.113 334.962L397.117 334.959C405.657 333.2 413.625 330.116 420.906 325.912C454.882 306.296 473.717 262.449 464.409 217.148C459.055 191.07 445.221 168.214 425.458 152.794C404.773 136.65 380.151 130.479 356.12 135.417C332.086 140.359 311.892 155.745 299.251 178.737C287.174 200.701 283.479 227.159 288.842 253.232C300.149 308.239 348.72 344.903 397.113 334.962Z" fill="#FFBD54"/>
<path d="M568.563 220.995L568.543 220.99C522.711 215.806 480.599 253.835 474.667 305.78C468.772 357.728 501.24 404.245 547.033 409.474C563.738 411.386 579.954 407.548 594.103 399.379C618.762 385.142 637.152 357.743 640.939 324.695C646.83 272.75 614.366 226.231 568.563 220.995Z" fill="#FFBD54"/>
</svg>
