<svg width="299" height="303" viewBox="0 0 299 303" fill="none" xmlns="http://www.w3.org/2000/svg">
<path d="M127.092 124.632C128.611 144.467 140.277 162.522 158.301 172.929C176.325 183.335 197.794 184.41 215.73 175.807L258.951 155.078C266.122 151.64 271.708 146.108 275.104 139.088C278.501 132.065 279.387 124.211 277.67 116.371C275.948 108.534 271.781 101.451 265.622 95.8884C259.463 90.3257 251.888 86.8091 243.718 85.7165L243.17 85.6452C222.69 82.7597 203.747 71.7403 191.122 55.3501C187.865 51.1227 183.851 47.6187 179.282 44.9809C176.799 43.5468 174.147 42.3684 171.366 41.4676C163.47 38.9137 155.253 38.8469 147.602 41.2742C139.955 43.7019 133.594 48.3968 129.208 54.8503C124.822 61.3038 122.826 68.906 123.432 76.8383L127.092 124.632Z" fill="#FFBD54"/>
<path d="M232.831 185.74C224.408 184.223 216.071 186.43 209.354 191.954C202.962 197.209 198.794 204.904 197.62 213.622C196.451 222.336 198.4 231.126 203.108 238.375C208.054 245.988 215.416 251.014 223.83 252.519C240.749 255.56 256.539 243.054 259.032 224.632C260.998 209.96 253.94 195.906 242.436 189.264C239.498 187.568 236.271 186.356 232.831 185.74Z" fill="#FFBD54"/>
<path d="M171.851 186.323C154.341 176.214 131.317 183.196 120.525 201.886C109.732 220.582 115.196 244.016 132.705 254.125C150.213 264.233 173.238 257.247 184.032 238.552C194.823 219.861 189.359 196.431 171.851 186.323Z" fill="#FFBD54"/>
<path d="M121.818 146.333L121.816 146.332C119.607 143.939 117.09 141.953 114.354 140.373C101.584 133.001 84.1124 134.524 71.6375 145.165C64.4552 151.29 59.9322 159.539 58.9027 168.392C57.8231 177.659 60.6507 186.47 66.8654 193.204C73.0818 199.939 81.8457 203.687 91.5435 203.76C100.808 203.829 109.864 200.493 117.043 194.366C132.19 181.443 134.332 159.896 121.818 146.333Z" fill="#FFBD54"/>
<path d="M52.6612 111.68L52.6635 111.687C59.9133 127.016 80.0634 133.82 97.5868 126.852C115.104 119.872 123.473 101.724 116.245 86.3992C113.61 80.8085 109.257 76.3501 103.939 73.28C94.6714 67.9293 82.4705 66.7945 71.3194 71.2232C53.8039 78.2042 45.4332 96.3516 52.6612 111.68Z" fill="#FFBD54"/>
</svg>
